<svg width="75" height="75" viewBox="0 0 75 75" fill="none" xmlns="http://www.w3.org/2000/svg">
<g filter="url(#filter0_d_344_664)">
<path d="M68.0137 26.8641L68.0084 26.8546L68.0028 26.8453L61.8401 16.4798C61.1764 15.3107 59.8428 15.0108 58.7838 15.3385L58.7492 15.3492L58.7155 15.3624L51.5457 18.1637C50.1658 17.1839 48.703 16.3316 47.104 15.6484L46.0296 8.27464L46.0278 8.26226L46.0257 8.24994C45.8125 7.00616 44.7421 6.13757 43.4979 6.13757H31.1612C29.8914 6.13757 28.8744 7.03142 28.6656 8.24994L28.6635 8.26226L28.6617 8.27464L27.5873 15.6488C25.9851 16.3355 24.5051 17.2057 23.1473 18.1644L15.9758 15.3624L15.9607 15.3565L15.9453 15.3511C14.826 14.9551 13.4978 15.3396 12.8505 16.481L6.71945 26.8472L6.71795 26.8498C6.10213 27.8981 6.27234 29.3015 7.3797 30.0732L13.4051 34.6349C13.286 35.4387 13.1983 36.3023 13.1983 37.1376C13.1983 37.9456 13.241 38.8065 13.347 39.6356L7.29811 44.2151C6.30875 44.9636 6.05264 46.3626 6.64544 47.411L6.6508 47.4205L6.65637 47.4299L12.819 57.7953C13.4828 58.9644 14.8163 59.2644 15.8754 58.9366L15.91 58.9259L15.9437 58.9128L23.1134 56.1114C24.4934 57.0912 25.9562 57.9436 27.5552 58.6267L28.6296 66.0005L28.6344 66.0333L28.6413 66.0658C28.8935 67.243 29.8848 68.1376 31.1612 68.1376H43.4979C44.7301 68.1376 45.829 67.2746 45.9985 65.9932L47.0718 58.6271C48.6688 57.9466 50.151 57.0962 51.5183 56.1133L58.6834 58.9128L58.6985 58.9187L58.7138 58.9241C59.8327 59.3199 61.1604 58.9359 61.808 57.7954L67.9707 47.4299L67.9772 47.419L67.9834 47.4079C68.599 46.3101 68.3614 44.9652 67.3223 44.21L61.3304 39.6285C61.4176 38.8258 61.4609 38.0008 61.4609 37.1376C61.4609 36.3048 61.4182 35.4601 61.3125 34.6393L67.3611 30.0601C68.3504 29.3116 68.6065 27.9125 68.0137 26.8641ZM37.3296 47.3876C31.4945 47.3876 26.7639 42.7469 26.7639 37.1376C26.7639 31.5283 31.4945 26.8876 37.3296 26.8876C43.1647 26.8876 47.8952 31.5283 47.8952 37.1376C47.8952 42.7469 43.1647 47.3876 37.3296 47.3876Z" stroke="#FF5AE0" stroke-width="2" shape-rendering="crispEdges"/>
</g>
<defs>
<filter id="filter0_d_344_664" x="0.330078" y="0.137573" width="73.999" height="74" filterUnits="userSpaceOnUse" color-interpolation-filters="sRGB">
<feFlood flood-opacity="0" result="BackgroundImageFix"/>
<feColorMatrix in="SourceAlpha" type="matrix" values="0 0 0 0 0 0 0 0 0 0 0 0 0 0 0 0 0 0 127 0" result="hardAlpha"/>
<feOffset/>
<feGaussianBlur stdDeviation="2.5"/>
<feComposite in2="hardAlpha" operator="out"/>
<feColorMatrix type="matrix" values="0 0 0 0 0.94902 0 0 0 0 0.0745098 0 0 0 0 0.643137 0 0 0 1 0"/>
<feBlend mode="normal" in2="BackgroundImageFix" result="effect1_dropShadow_344_664"/>
<feBlend mode="normal" in="SourceGraphic" in2="effect1_dropShadow_344_664" result="shape"/>
</filter>
</defs>
</svg>
